<svg width="220" height="60" viewBox="0 0 220 60" fill="none" xmlns="http://www.w3.org/2000/svg">
<path d="M140.652 21.3638V29.5179C140.671 31.1134 140.829 32.0482 142.015 32.8066C142.522 33.1369 143.611 33.7414 145.788 33.7414C147.11 33.7414 148.277 33.4898 149.039 33.1369C150.811 32.3373 150.811 30.9182 150.811 29.7694V21.3638H152.775V29.6155C152.775 30.9971 152.775 32.8854 150.672 34.2482C149.719 34.8714 148.183 35.4345 145.769 35.4345C143.979 35.4345 142.169 35.1417 140.69 34.113C138.749 32.7653 138.689 30.9933 138.689 29.4391V21.3638H140.652Z" fill="white"/>
<path d="M156.322 21.3638L165.584 31.1885C166.245 31.8906 166.38 32.0445 167.044 32.8629C166.947 31.8906 166.947 31.7141 166.928 30.8394V21.3638H168.798V35.1004H166.89L157.16 24.8064C156.653 24.2432 156.499 24.048 156.09 23.5412C156.168 24.4948 156.187 24.7688 156.187 25.9139V35.0966H154.318V21.3638H156.322Z" fill="white"/>
<path d="M170.307 21.3638H172.312V35.1004H170.307V21.3638Z" fill="white"/>
<path d="M173.836 21.3638H187.009V22.9968H181.386V35.1004H179.441V22.9968H173.836V21.3638Z" fill="white"/>
<path d="M219.446 14.7495C219.356 14.8208 218.702 15.3877 218.338 15.7181C217.366 16.6041 216.405 17.5013 215.436 18.3873C214.261 19.461 213.075 20.5234 211.9 21.5934C211.652 21.8224 211.397 22.0514 211.183 22.3067C210.529 23.0801 210.526 23.9435 210.886 24.8408C211.674 26.8042 211.674 28.7827 211.051 30.7837C210.638 32.1164 209.895 33.2502 208.923 34.215C207.939 35.1949 206.76 35.8932 205.416 36.2986C203.156 36.9856 200.975 36.7416 198.876 35.7167C198.264 35.4164 197.652 35.1836 197.007 35.4051C196.537 35.5665 196.106 35.8631 195.689 36.1484C195.366 36.3662 195.021 36.7041 194.709 37.0006C194.428 37.2709 194.454 37.4699 194.713 37.6689C195.284 38.1532 195.858 38.5436 196.466 38.9228C197.803 39.7525 198.921 40.2067 200.922 40.5371C203.483 40.9576 206.291 40.5146 208.769 39.2194C210.882 38.1156 212.482 36.4976 213.687 34.4666C214.569 32.9799 215.125 31.3656 215.32 29.6349C215.515 27.9192 215.331 26.2336 214.854 24.578C214.67 23.9097 214.723 23.2377 215.061 22.6333C215.879 21.1729 216.739 19.7351 217.58 18.2897C218.222 17.1822 218.86 16.071 219.498 14.9597C219.611 14.7795 219.547 14.6669 219.446 14.7495Z" fill="url(#paint0_linear)"/>
<path d="M186.258 41.6441C186.348 41.5728 187.002 41.0059 187.366 40.6755C188.338 39.7895 189.299 38.8923 190.268 38.0063C191.443 36.9326 192.629 35.8701 193.804 34.8002C194.052 34.5712 194.307 34.3422 194.521 34.0869C195.175 33.3135 195.178 32.4501 194.818 31.5528C194.03 29.5894 194.03 27.6109 194.653 25.6099C195.066 24.2772 195.809 23.1434 196.781 22.1786C197.765 21.1987 198.944 20.5004 200.288 20.095C202.548 19.408 204.729 19.652 206.828 20.6769C207.44 20.9772 208.052 21.21 208.697 20.9885C209.167 20.827 209.598 20.5305 210.015 20.2451C210.338 20.0274 210.683 19.6895 210.995 19.3929C211.276 19.1226 211.25 18.9237 210.991 18.7247C210.42 18.2404 209.846 17.85 209.238 17.4708C207.901 16.6411 206.783 16.1869 204.782 15.8565C202.221 15.436 199.413 15.879 196.935 17.1742C194.822 18.2779 193.222 19.896 192.017 21.927C191.135 23.4137 190.579 25.028 190.384 26.7587C190.189 28.4744 190.373 30.16 190.85 31.8156C191.034 32.4838 190.981 33.1558 190.643 33.7603C189.825 35.2207 188.965 36.6585 188.124 38.1039C187.482 39.2114 186.844 40.3226 186.206 41.4339C186.093 41.6141 186.157 41.7267 186.258 41.6441Z" fill="url(#paint1_linear)"/>
<path d="M199.691 25.4481H201.928V28.7105H202.904V30.0245H201.913V31.0419H200.055V30.0245H196.387V28.8006L199.691 25.4481ZM200.062 26.9273L198.294 28.7105H200.062V26.9273Z" fill="white"/>
<path d="M209.317 31.0457H203.475V29.897C203.674 29.5328 203.944 29.0372 204.962 28.4516C205.195 28.3202 205.307 28.2714 206.358 27.7908C206.937 27.5281 207.252 27.3854 207.252 27.04C207.252 26.5595 206.565 26.5445 206.343 26.5445C206.111 26.5445 205.882 26.5707 205.69 26.6946C205.375 26.8936 205.367 27.1977 205.36 27.4042L203.64 27.3629C203.674 26.9424 203.697 26.552 203.971 26.1578C204.327 25.6697 204.864 25.3544 206.557 25.3544C207.804 25.3544 208.465 25.5871 208.855 26.0001C209.118 26.2817 209.227 26.612 209.227 26.9762C209.227 27.7946 208.532 28.2338 207.961 28.5041C207.631 28.6618 207.286 28.7932 206.952 28.9434C206.738 29.0335 206.099 29.3151 205.664 29.6379C205.608 29.6717 205.555 29.713 205.506 29.7543C205.589 29.7468 205.671 29.7468 205.754 29.7468C205.844 29.7393 205.927 29.7393 206.017 29.7393H209.313V31.0457H209.317Z" fill="white"/>
<line opacity="0.2" x1="116.445" y1="12.3961" x2="116.445" y2="44.9378" stroke="#A0A0A0" stroke-width="2"/>
<path fill-rule="evenodd" clip-rule="evenodd" d="M52.743 45.2309L53.5651 45.2313C53.5651 45.2313 53.5658 42.1083 53.5656 41.7268C53.8009 42.0271 56.3343 45.2322 56.3343 45.2322L57.221 45.2343L57.221 40.4991L56.3989 40.4987C56.3989 40.4987 56.3979 43.6233 56.3986 44.0023C56.1636 43.7047 53.63 40.4961 53.63 40.4961L52.743 40.4957L52.743 45.2309Z" fill="white"/>
<path fill-rule="evenodd" clip-rule="evenodd" d="M58.3274 45.2335L62.1431 45.2368L62.1431 44.4843C62.1431 44.4843 59.3013 44.4834 59.1509 44.4834L59.1507 43.1664L61.9907 43.1677L61.9903 42.4169L59.1503 42.4156C59.1506 42.2801 59.1502 41.3869 59.1503 41.2523C59.3016 41.2525 62.0802 41.2537 62.0802 41.2537L62.0807 40.503L58.3275 40.4983L58.3274 45.2335Z" fill="white"/>
<path fill-rule="evenodd" clip-rule="evenodd" d="M62.8905 41.2542C62.8905 41.2542 64.4363 41.2548 64.5797 41.2551C64.5794 41.4112 64.5797 45.2378 64.5797 45.2378L65.4037 45.2377C65.4037 45.2377 65.4041 41.4122 65.4037 41.2551C65.5468 41.257 67.0926 41.2577 67.0926 41.2577L67.0926 40.5051L62.8905 40.5017L62.8905 41.2542Z" fill="white"/>
<path fill-rule="evenodd" clip-rule="evenodd" d="M69.2793 45.2424L70.1274 45.2431C70.1274 45.2431 71.1833 41.988 71.3094 41.6101C71.4306 41.9879 72.496 45.2452 72.496 45.2452L73.3372 45.2454L74.9051 40.5129L74.0466 40.5125C74.0466 40.5125 73.0779 43.6749 72.9583 44.0628C72.8303 43.6766 71.7837 40.5096 71.7837 40.5096L70.8803 40.5092C70.8803 40.5092 69.8643 43.6701 69.7385 44.0584C69.6177 43.6669 68.644 40.5068 68.644 40.5068L67.7553 40.506L69.2793 45.2424Z" fill="white"/>
<path fill-rule="evenodd" clip-rule="evenodd" d="M77.7187 40.3994C76.9146 40.3994 76.2763 40.6322 75.8217 41.0991C75.3918 41.5393 75.1537 42.1713 75.1539 42.8782C75.154 43.5858 75.391 44.2196 75.8221 44.6607C76.2784 45.1253 76.9154 45.3626 77.7184 45.3633C79.6107 45.365 80.2831 44.028 80.2826 42.8835C80.284 41.7378 79.6103 40.4002 77.7187 40.3994ZM76.4241 44.127C76.1282 43.8224 75.9767 43.4045 75.9764 42.8814L75.9759 42.8796C75.9757 42.3557 76.1272 41.9357 76.425 41.6331C76.7335 41.3164 77.1815 41.1493 77.7176 41.1493L77.7192 41.1497C78.7935 41.1519 79.4599 41.8157 79.4604 42.8833C79.4604 43.9491 78.7928 44.6123 77.7191 44.6119C77.1805 44.6114 76.7349 44.4424 76.4241 44.127Z" fill="white"/>
<path fill-rule="evenodd" clip-rule="evenodd" d="M81.2007 45.2497L82.0234 45.2519C82.0234 45.2519 82.0239 43.4596 82.0243 43.3113L83.6773 43.3122C84.1407 43.3124 84.4162 43.4762 84.4615 44.3048L84.4697 44.4532C84.4953 44.9144 84.5061 45.0875 84.6179 45.2243L84.6421 45.2528L85.555 45.2535L85.441 45.1188C85.3059 44.9572 85.2834 44.7496 85.2481 43.9275C85.2235 43.4208 85.0179 43.0742 84.7007 42.9395C85.1076 42.7377 85.3473 42.346 85.3474 41.817C85.3472 41.2198 85.0059 40.519 84.0479 40.519L81.2005 40.5161L81.2007 45.2497ZM82.0237 41.2673C82.1699 41.2673 83.815 41.2683 83.815 41.2683C84.2729 41.2699 84.5248 41.5003 84.5251 41.9181C84.5233 42.1585 84.43 42.5606 83.7963 42.5606C83.7963 42.5606 82.1687 42.5581 82.0242 42.5584C82.0239 42.422 82.0238 41.4054 82.0237 41.2673Z" fill="white"/>
<path fill-rule="evenodd" clip-rule="evenodd" d="M86.5204 45.2553L87.3449 45.2571C87.3449 45.2571 87.344 43.789 87.3439 43.7199C87.39 43.678 87.9684 43.1536 88.0688 43.0637C88.1676 43.1848 89.8684 45.2585 89.8684 45.2585L90.9915 45.259C90.9915 45.259 88.7878 42.6262 88.6901 42.5079C88.8024 42.4067 90.9118 40.525 90.9118 40.525L89.7317 40.5244C89.7317 40.5244 87.5816 42.5001 87.3434 42.7179L87.3423 40.5222L86.5202 40.5218L86.5204 45.2553Z" fill="white"/>
<path fill-rule="evenodd" clip-rule="evenodd" d="M91.6286 41.8805C91.629 42.9239 92.678 43.102 93.022 43.1596L94.035 43.3318C94.5799 43.4286 94.8036 43.6004 94.8016 43.9314C94.8018 44.0851 94.7487 44.217 94.6436 44.325C94.4545 44.5187 94.1105 44.6242 93.6729 44.6244C93.1711 44.6221 92.3263 44.5004 92.3137 43.6727L92.3117 43.5929L91.4912 43.5928L91.4916 43.6723C91.4919 44.1427 91.6312 44.5244 91.909 44.8078C92.3653 45.2767 93.0946 45.3765 93.622 45.3764C94.0274 45.3772 94.7766 45.306 95.2362 44.8358C95.4953 44.5725 95.6258 44.2231 95.6255 43.7976C95.625 42.8033 94.5697 42.6101 94.2235 42.5468C94.2136 42.5447 93.119 42.3535 93.119 42.3535C92.5196 42.2485 92.4513 42.0045 92.4512 41.8301C92.4507 41.6738 92.504 41.541 92.6091 41.433C92.7746 41.2646 93.074 41.1616 93.4112 41.1617C94.4209 41.1623 94.6063 41.6082 94.6593 41.9405L94.6698 42.0091L95.4873 42.0112L95.4798 41.9241C95.427 40.9645 94.7032 40.412 93.4989 40.4114C92.345 40.4095 91.6281 40.9717 91.6286 41.8805Z" fill="white"/>
<path fill-rule="evenodd" clip-rule="evenodd" d="M14.3137 20.8574C13.5144 20.0377 12.2281 19.5399 10.7714 19.5393C9.20121 19.5395 8.02911 19.9488 6.94462 21.2924L6.94372 20.418C6.61017 19.9777 6.0939 19.6893 5.50859 19.6892C4.91996 19.6883 4.41721 19.975 4.08677 20.4191L4.09486 40.5163L7.00833 40.5176L7.00564 33.0091C8.0629 34.2953 9.26425 34.7043 10.8057 34.7049C12.2625 34.7056 13.5197 34.209 14.3186 33.3916C15.7765 31.9022 15.9451 29.3594 15.9444 27.1095C15.9435 24.8603 15.7728 22.3481 14.3137 20.8574ZM10.0344 32.0463C7.40519 32.0458 7.00475 29.7359 7.00328 27.1069C7.00198 24.4771 7.40061 22.199 10.0298 22.1995C12.658 22.2007 13.0296 24.4794 13.0309 27.1092C13.0322 29.739 12.6618 32.0473 10.0344 32.0463Z" fill="white"/>
<path fill-rule="evenodd" clip-rule="evenodd" d="M26.6109 34.5357L26.6103 33.1919C25.5531 34.2729 24.5532 34.7102 22.7531 34.7099C20.9532 34.7087 19.7537 34.2708 18.8681 33.3646C18.1249 32.574 17.723 31.4341 17.7226 30.1792C17.7216 27.6944 19.4075 25.9134 22.723 25.9148L26.5493 25.917L26.5492 24.8641C26.548 22.9946 25.6339 22.0884 23.3776 22.0868C21.7772 22.0867 21.0067 22.4657 20.2062 23.5184L18.2918 21.6764C19.6633 20.04 21.0909 19.5434 23.4917 19.5446C27.4608 19.546 29.4614 21.2717 29.4631 24.6317L29.4665 34.5369L26.6109 34.5357ZM26.55 27.9917L23.1497 27.9904C21.4363 27.9895 20.551 28.7782 20.5515 30.122C20.5519 31.4666 21.3811 32.2271 23.2097 32.2274C24.3233 32.2277 25.1513 32.1396 25.9231 31.3803C26.3515 30.9432 26.5508 30.2416 26.5506 29.1888L26.55 27.9917Z" fill="white"/>
<path fill-rule="evenodd" clip-rule="evenodd" d="M36.8211 31.997C35.6488 31.9964 35.249 31.4126 35.2482 30.2733L35.2421 13.7381C34.902 13.2878 34.3765 12.994 33.7791 12.9939C33.179 12.994 32.6649 13.2852 32.3283 13.7383L32.3346 30.447C32.3359 32.6376 33.5349 34.5381 36.3074 34.5398L38.1075 34.5401L38.1067 31.9976L36.8211 31.997Z" fill="white"/>
<path fill-rule="evenodd" clip-rule="evenodd" d="M49.4958 32.9666C48.5534 33.9589 47.1254 34.7177 45.1542 34.7173C43.184 34.7162 41.783 33.9567 40.8408 32.9633C39.4681 31.5014 39.1246 29.6316 39.1234 27.1192C39.1224 24.6345 39.4643 22.7654 40.8363 21.306C41.7782 20.3119 43.1785 19.5532 45.1481 19.5533C47.1191 19.5546 48.5486 20.3141 49.4913 21.3093C50.8635 22.7694 51.206 24.6399 51.207 27.1246C51.2076 29.636 50.8671 31.5062 49.4958 32.9666ZM47.2924 23.0611C46.7498 22.5065 46.0071 22.2132 45.1495 22.213C44.2937 22.2123 43.5795 22.5049 43.037 23.0601C42.1512 23.9653 42.0374 25.5134 42.0372 27.1211C42.0382 28.7273 42.1541 30.2769 43.0396 31.1831C43.5825 31.7369 44.2974 32.0589 45.1532 32.0595C46.0109 32.0598 46.7535 31.7387 47.2957 31.1851C48.1817 30.2791 48.2959 28.7293 48.2949 27.1231C48.2941 25.5161 48.1788 23.9675 47.2924 23.0611Z" fill="white"/>
<path fill-rule="evenodd" clip-rule="evenodd" d="M72.4777 32.0111C71.3071 32.0108 70.9074 31.4262 70.9066 30.2869L70.8987 13.7522C70.5605 13.3014 70.0331 13.0081 69.4357 13.008C68.8356 13.0082 68.3215 13.2993 67.9849 13.7525L67.9912 30.4612C67.9925 32.6517 69.1932 34.5526 71.964 34.5539L73.7641 34.5542L73.7633 32.0117L72.4777 32.0111Z" fill="white"/>
<path fill-rule="evenodd" clip-rule="evenodd" d="M61.8727 34.5494L61.8721 33.2056C60.8149 34.2866 59.8166 34.7242 58.0167 34.7231C56.2185 34.7223 55.0173 34.284 54.1309 33.3776C53.3883 32.5881 52.9881 31.4484 52.9879 30.1927C52.9869 27.708 54.6709 25.9275 57.9848 25.9285L61.8129 25.9302L61.8126 24.8781C61.8116 23.0078 60.8975 22.1016 58.641 22.1009C57.0408 22.0999 56.2701 22.4798 55.4698 23.5316L53.5552 21.6904C54.9251 20.0537 56.3535 19.5573 58.7535 19.5583C62.7243 19.56 64.7248 21.2858 64.7257 24.6456L64.7301 34.5501L61.8727 34.5494ZM61.8137 28.0051L58.4135 28.0038C56.7 28.0029 55.8149 28.7908 55.8154 30.1346C55.8156 31.4801 56.645 32.2397 58.4734 32.2409C59.587 32.2411 60.415 32.1531 61.1852 31.3934C61.6146 30.9556 61.8147 30.2543 61.8135 29.202L61.8137 28.0051Z" fill="white"/>
<path fill-rule="evenodd" clip-rule="evenodd" d="M81.8548 22.2852L81.854 20.0067L79.0547 20.0054L79.0532 15.5176C78.7129 15.0682 78.1873 14.7752 77.5882 14.7747C76.9889 14.7751 76.4759 15.0656 76.1394 15.5179L76.1412 20.004L74.4838 20.0038L74.4853 22.2825L76.1418 22.2833L76.1451 30.4358C76.1459 32.5675 77.4024 34.5554 80.1179 34.5569L81.8592 34.5569L81.8584 32.0143L80.6584 32.0139C79.5742 32.0138 79.0591 31.3701 79.0586 30.2904L79.0554 22.2839L81.8548 22.2852Z" fill="white"/>
<path fill-rule="evenodd" clip-rule="evenodd" d="M93.9728 32.9828C93.0305 33.9751 91.6025 34.7339 89.6313 34.7334C87.6592 34.7328 86.2601 33.9729 85.3162 32.9791C83.9452 31.5175 83.6033 29.6481 83.6021 27.1357C83.6011 24.651 83.9416 22.7808 85.3117 21.3219C86.2553 20.3281 87.6539 19.5691 89.6251 19.5695C91.5962 19.5708 93.0256 20.3303 93.9684 21.3255C95.3405 22.7856 95.6849 24.6556 95.6859 27.1403C95.6863 29.6525 95.3441 31.5224 93.9728 32.9828ZM91.7691 23.0761C91.2264 22.5215 90.4838 22.2282 89.6261 22.228C88.7703 22.2273 88.0562 22.5199 87.5136 23.0751C86.6278 23.9802 86.514 25.5284 86.5138 27.1361C86.5148 28.7423 86.6307 30.2919 87.5163 31.1981C88.0591 31.7519 88.774 32.0739 89.6299 32.0745C90.4875 32.0747 91.2302 31.7536 91.7724 31.2001C92.6584 30.2941 92.7725 28.7443 92.7713 27.1389C92.7707 25.5311 92.6555 23.9825 91.7691 23.0761Z" fill="white"/>
<path fill-rule="evenodd" clip-rule="evenodd" d="M98.1605 43.3895C97.3858 43.3896 96.7587 42.748 96.7585 41.9558C96.7583 41.1635 97.3848 40.5226 98.1595 40.5224C98.9341 40.5231 99.5612 41.1647 99.5614 41.9569C99.5616 42.7492 98.9351 43.3901 98.1605 43.3895ZM98.1593 40.7337C97.5092 40.7336 96.9833 41.2837 96.983 41.956C96.9835 42.6292 97.51 43.1786 98.1601 43.1787C98.8111 43.179 99.3402 42.6304 99.3399 41.9564C99.3393 41.284 98.8095 40.7339 98.1593 40.7337ZM98.501 42.7388L98.1479 42.0976L97.917 42.0977L97.9167 42.738L97.704 42.7376L97.7033 41.1669L98.2262 41.1675C98.4916 41.1679 98.71 41.3731 98.7099 41.638C98.7103 41.8676 98.5702 42.0104 98.3796 42.0692L98.7491 42.7389L98.501 42.7388ZM98.2023 41.3622L97.9162 41.3618L97.9168 41.9125L98.2031 41.9121C98.3732 41.9129 98.492 41.7975 98.492 41.6387C98.4919 41.4807 98.3727 41.3622 98.2023 41.3622Z" fill="white"/>
<defs>
<linearGradient id="paint0_linear" x1="193.682" y1="29.564" x2="220.788" y2="26.746" gradientUnits="userSpaceOnUse">
<stop stop-color="#FEDE65"/>
<stop offset="1" stop-color="#F47A47"/>
</linearGradient>
<linearGradient id="paint1_linear" x1="212.144" y1="26.9896" x2="185.038" y2="29.8076" gradientUnits="userSpaceOnUse">
<stop stop-color="#8DD5E1"/>
<stop offset="1" stop-color="#3D94D1"/>
</linearGradient>
</defs>
</svg>
